<?xml version="1.0" encoding="UTF-8"?>
<svg id="_レイヤー_2" data-name="レイヤー 2" xmlns="http://www.w3.org/2000/svg" viewBox="0 0 352.36 314.47">
  <defs>
    <style>
      .cls-1 {
        fill: none;
        stroke: #444;
        stroke-miterlimit: 10;
        stroke-width: 5px;
      }
    </style>
  </defs>
  <g id="_レイヤー_1-2" data-name="レイヤー 1">
    <g>
      <g>
        <path d="M17.79,71.81c-11.74,0-17.79-8.62-17.79-13.16,0-3.06,2.09-5.28,4.18-5.28,1.15,0,2.3.74,3.17,2.32,1.87,3.43,5.4,6.21,10.51,6.21,7.92,0,9.65-6.95,9.65-9.91,0-3.71-1.73-7.69-5.47-10.38-3.17-2.32-7.06-5.1-10.87-7.32C4.82,30.58,1.94,24,1.94,17.61,1.94,8.62,7.56,0,17.5,0s15.63,6.12,15.63,10.47c0,2.78-1.8,5.37-4.03,5.37-1.08,0-2.3-.65-3.38-2.22-1.37-1.95-3.82-4.26-8.28-4.26s-7.42,3.71-7.42,7.88c0,2.87,1.37,6.02,4.54,8.15,2.95,2.04,7.92,5,11.23,7.32,7.2,5.1,10.22,12.14,10.22,18.99,0,9.91-6.55,20.11-18.22,20.11Z"/>
        <path d="M58.11,66.16c.14-7.23.22-20.66.22-32.89,0-8.15,0-15.84-.14-20.76,0-1.85-.22-1.85-4.46-1.85-2.74,0-6.12.18-9.5.18-2.74,0-4.1-2.5-4.1-5s1.3-4.91,3.96-4.91h.14c4.32.09,11.95.18,19.44.18,6.12,0,12.24-.09,16.35-.18,2.81-.09,3.74,2.96,3.74,5,0,2.5-1.15,4.91-3.46,4.91h-.29c-2.45-.18-4.54-.18-6.26-.18q-7.13,0-7.13,1.85c-.14,6.3-.22,15.29-.22,24.37,0,11.12.14,22.42.36,29.28.14,3.24-2.09,4.82-4.32,4.82s-4.32-1.58-4.32-4.73v-.09Z"/>
        <path d="M122.4,70.88c-1.66,0-3.38-1.02-4.1-3.43-.86-2.69-2.74-10.1-4.97-18.72-.14-.56-.36-.83-.79-.83-1.15-.09-4.1-.09-7.34-.09-4.32,0-9.15,0-10.66.09-.36,0-.72.28-.86.83-1.8,7.32-3.46,13.99-4.54,18.44-.65,2.59-2.3,3.8-4.03,3.8-2.02,0-4.1-1.76-4.1-4.63,0-1.67.22-2.41,15.99-59.48,1.15-4.26,3.74-6.21,6.34-6.21,2.74,0,5.54,2.22,6.7,6.39,4.61,16.68,13.97,48.92,16.35,56.15.29.93.43,1.85.43,2.69,0,3.15-2.16,5-4.39,5ZM110.38,37.25c-2.23-8.71-4.39-17.14-5.54-21.68-.43-1.67-.79-2.59-1.22-2.59-.36,0-.79.83-1.3,2.69-1.08,3.71-5.76,21.03-5.76,21.87,0,.37.14.56.58.56,1.44,0,4.1.09,6.62.09s5.11-.09,6.12-.09c.43,0,.58-.09.58-.37,0-.09,0-.28-.07-.46Z"/>
        <path d="M134.28,66.44c.14-9.54.22-20.76.22-31.41,0-9.27-.07-18.07-.14-25.02v-.37c0-6.49,2.81-9.08,5.98-9.08,2.66,0,5.54,1.95,7.06,5,4.54,9.27,16.56,38.17,22.03,48.74.43.83.79,1.3,1.01,1.3s.5-.28.5-3.89c0-8.71-.22-37.62-.43-46.14-.07-3.06,1.87-5,4.18-5,2.09,0,4.18,1.67,4.18,4.82v.18c-.14,6.49-.22,15.47-.22,24.74,0,11.77.07,23.91.22,31.97v.18c0,5.56-3.17,8.8-6.55,8.8-2.3,0-4.61-1.48-6.19-4.63-5.04-10.28-18.51-41.97-22.39-50.4-.29-.56-.79-1.76-1.15-1.76-.43,0-.43.93-.43,5.19,0,9.64.22,36.97.43,46.79v.18c0,2.97-2.02,4.36-4.1,4.36s-4.18-1.48-4.18-4.45v-.09Z"/>
        <path d="M208.15,71.9c-5.76,0-15.99-.09-16.71-13.06-.22-4.54-.36-12.05-.36-19.83,0-10.19.22-20.94.43-25.94.58-12.69,7.7-13.07,16.63-13.07,2.23,0,4.39.09,5.47.19,16.63,1.39,25.78,16.31,25.78,35.58,0,36.04-23.76,36.14-31.25,36.14ZM207.14,10.01c-3.46,0-7.34.09-7.56,4.72-.22,3.89-.43,14.55-.43,24.55,0,7.32.14,14.18.43,17.7.36,4.26,2.59,5,8.57,5,7.56,0,22.75,0,22.75-26.22,0-14.92-6.98-25.67-18-25.67,0,0-3.1-.09-5.76-.09Z"/>
        <path d="M260.78,42.81v-.46c.07-6.49.07-13.34.07-20.11,0-5.65,0-11.21-.14-16.59-.07-2.69,1.3-4.91,4.18-4.91,2.02,0,4.1,1.58,4.1,4.73v.18c-.07,3.61-.14,7.23-.14,10.84,0,7.6.14,15.2.14,22.7v3.8c0,12.42,6.48,18.44,13.03,18.44s13.75-6.58,13.75-19.18c0-8.06.14-16.31.14-24.46,0-4.08-.07-8.15-.14-12.14-.07-4.17,2.74-4.91,4.18-4.91,2.09,0,4.18,1.58,4.18,4.73v.18c-.14,7.69-.22,13.99-.22,20.01,0,5.28.07,10.47.14,16.31.36,20.2-11.16,29.83-21.75,29.83s-21.53-9.64-21.53-29Z"/>
        <path d="M321.4,70.88c-2.02,0-4.1-1.67-4.1-4.72v-.28c.29-7.23.36-15.38.36-23.26,0-9.54-.14-18.62-.14-25.11,0-11.4.07-17.51,14.19-17.51,1.51,0,2.95.09,4.03.19,11.38.93,16.63,10.84,16.63,20.85s-5.54,20.76-15.63,22.05c-1.73.28-3.38.46-5.18.46-1.66,0-3.38-.18-5.26-.74-.22-.09-.36-.09-.5-.09-.36,0-.43.28-.43,1.02,0,5.74.22,12.32.22,18.44v3.61c-.07,3.52-2.09,5.1-4.18,5.1ZM331.55,9.73c-5.76,0-6.41,1.02-6.41,9.64,0,3.24.07,7.04.07,10.28v1.58c0,1.95,1.44,2.59,5.9,2.59,1.37,0,2.88-.09,4.39-.28,5.47-.65,8.78-7.04,8.78-12.97,0-5.56-2.81-10.75-9.29-10.75,0,0-1.73-.09-3.46-.09Z"/>
        <path d="M32.61,185.91c-17.93,0-27.58-17.14-27.58-35.21s10.3-36.69,27.87-36.69c11.45,0,19.23,8.52,19.23,13.53,0,3.15-2.09,5.74-4.39,5.74-1.3,0-2.59-.74-3.67-2.5-2.81-4.45-7.34-6.58-11.88-6.58-12.17,0-18.65,13.34-18.65,25.85,0,7.78,3.53,25.2,18.72,25.2,5.47,0,10.87-2.69,13.83-7.78,1.01-1.76,2.23-2.41,3.53-2.41,2.45,0,4.82,2.78,4.82,5.93,0,4.82-8.57,14.92-21.82,14.92Z"/>
        <path d="M63.62,150.05c0-20.85,11.88-35.95,27.72-35.95s27.79,15.1,27.79,35.95-11.95,35.95-27.79,35.95-27.72-14.36-27.72-35.95ZM110.64,150.05c0-16.03-8.64-26.41-19.3-26.41s-19.3,10.38-19.3,26.41,8.64,26.22,19.3,26.22,19.3-10.28,19.3-26.22Z"/>
        <path d="M130.98,180.81c.5-16.21,2.16-42.25,2.74-55.69.29-6.86,3.6-10.38,6.98-10.38,2.95,0,5.98,2.59,7.27,7.97,2.74,11.12,9.07,39.84,10.8,44.38.22.56.43.83.72.83.22,0,.5-.28.65-.83,2.74-8.52,8.5-34.28,11.3-44.85,1.37-5.19,4.46-7.6,7.42-7.6,3.6,0,7.06,3.61,7.2,10.1.22,11.95,1.8,42.07,2.38,55.22v.37c0,3.15-2.09,4.82-4.18,4.82s-4.18-1.58-4.32-4.82c-.72-13.25-1.44-50.03-1.44-50.03,0-1.58-.29-2.22-.65-2.22s-.86.83-1.08,1.95c-1.58,7.69-9,37.8-11.95,47.72-.94,3.15-3.24,5.28-5.62,5.28-2.02,0-4.03-1.48-5.18-5.19-2.3-7.04-8.64-36.41-11.31-47.35-.29-1.11-.65-1.76-.94-1.76-.36,0-.65.74-.79,2.69-.5,8.15-1.51,36.32-1.87,49.11-.07,3.06-2.23,4.63-4.32,4.63-1.94,0-3.82-1.39-3.82-4.17v-.19Z"/>
        <path d="M221.74,124.1c-7.2,0-8.71.18-8.93,4.17-.14,2.22-.07,6.76-.14,12.14,0,1.85.07,1.85,8.93,1.85,3.31,0,6.77,0,8.07-.09,4.03-.28,4.03,4.63,4.03,4.91,0,2.69-1.3,5.28-3.82,5.28h-.36c-1.8-.19-4.54-.28-7.27-.28-8.93,0-9.65.09-9.65,2.04,0,13.81.07,15.94.22,17.51.36,4.26,1.51,4.45,11.67,4.45,4.25,0,8.86-.09,10.22-.19h.36c2.52,0,3.89,2.32,3.89,4.73s-1.44,5-4.54,5.19c-.94.09-5.11.18-9.29.18s-8.28-.09-9.22-.18c-6.62-.65-10.73-3.71-11.02-11.86-.14-3.89-.14-10.75-.14-18.25,0-11.3.07-23.9.22-29.74.14-7.41,3.89-11.3,9.72-11.67,1.3-.09,5.4-.19,9.43-.19s8.06.09,9.14.19c2.74.18,4.03,2.5,4.03,4.91s-1.51,5-4.25,5c0,0-6.41-.09-11.3-.09Z"/>
        <path d="M268.5,186c-5.76,0-15.99-.09-16.71-13.06-.22-4.54-.36-12.05-.36-19.83,0-10.19.22-20.94.43-25.94.58-12.69,7.7-13.07,16.63-13.07,2.23,0,4.39.09,5.47.19,16.63,1.39,25.78,16.31,25.78,35.58,0,36.04-23.76,36.14-31.25,36.14ZM267.5,124.1c-3.46,0-7.34.09-7.56,4.72-.22,3.89-.43,14.55-.43,24.55,0,7.32.14,14.18.43,17.7.36,4.26,2.59,5,8.57,5,7.56,0,22.75,0,22.75-26.22,0-14.92-6.99-25.67-18-25.67,0,0-3.1-.09-5.76-.09Z"/>
        <path d="M322.98,157.37q0-1.67-.72-3.06c-5.26-10.19-12.53-24-15.99-30.67-.58-1.11-.86-2.22-.86-3.24,0-3.15,2.3-5.65,4.54-5.65,1.3,0,2.59.83,3.46,2.78,3.02,6.76,8.06,16.4,13.1,26.04.29.56.58.74.86.74.36,0,.65-.19.86-.65,4.46-7.88,10.15-19.27,13.03-26.22.79-1.85,1.94-2.59,3.24-2.59,2.3,0,4.82,2.69,4.82,5.75,0,.93-.22,1.76-.65,2.69-3.24,6.67-11.31,22.15-15.99,30.58-.79,1.48-.86,1.85-.86,3.61,0,5.56.07,14.92.07,22.42,0,3.43-2.23,5.19-4.39,5.19-2.3,0-4.54-1.76-4.54-5.47v-22.24Z"/>
      </g>
      <path class="cls-1" d="M35.95,292.55l8.5,8.5-8.5,8.5-8.5-8.5,8.5-8.5Z"/>
      <path class="cls-1" d="M53.53,231.66h38.56v11.34h-13.04v68.06h-12.48v-68.06h-13.04v-11.34Z"/>
      <path class="cls-1" d="M104.52,250.72c0-12.7,6.69-19.96,18.94-19.96s18.94,7.26,18.94,19.96v41.29c0,12.7-6.69,19.96-18.94,19.96s-18.94-7.26-18.94-19.96v-41.29ZM116.99,292.8c0,5.67,2.5,7.83,6.47,7.83s6.47-2.16,6.47-7.83v-42.88c0-5.67-2.5-7.83-6.47-7.83s-6.47,2.16-6.47,7.83v42.88Z"/>
      <path class="cls-1" d="M174.79,279.42l-3.86,7.26v24.39h-12.48v-79.4h12.48v34.37h.23l16.11-34.37h12.48l-17.35,35.39,17.35,44.01h-12.82l-12.14-31.65Z"/>
      <path class="cls-1" d="M225.1,284.75l-15.77-53.08h13.04l9.41,36.18h.23l9.41-36.18h11.91l-15.77,53.08v26.31h-12.48v-26.31Z"/>
      <path class="cls-1" d="M263.61,250.72c0-12.7,6.69-19.96,18.94-19.96s18.94,7.26,18.94,19.96v41.29c0,12.7-6.69,19.96-18.94,19.96s-18.94-7.26-18.94-19.96v-41.29ZM276.08,292.8c0,5.67,2.5,7.83,6.47,7.83s6.47-2.16,6.47-7.83v-42.88c0-5.67-2.5-7.83-6.47-7.83s-6.47,2.16-6.47,7.83v42.88Z"/>
    </g>
  </g>
</svg>